ISO-10303-21;
HEADER;
FILE_DESCRIPTION((''),'2;1');
FILE_NAME('Crystal', '2025-03-27T07:26:01', (''), (''), 'ImageToStl.com STEP Converter','', '');
FILE_SCHEMA(('AUTOMOTIVE_DESIGN_CC2'));
ENDSEC;
DATA;
#1=PRODUCT_DEFINITION_CONTEXT('',#4,'design');
#2=APPLICATION_PROTOCOL_DEFINITION('INTERNATIONAL STANDARD','automotive_design',1994,#4);
#3=(GEOMETRIC_REPRESENTATION_CONTEXT(3)GLOBAL_UNCERTAINTY_ASSIGNED_CONTEXT((#5))GLOBAL_UNIT_ASSIGNED_CONTEXT((#6,#7,#8))REPRESENTATION_CONTEXT('NONE','WORKSPACE'));
#4=APPLICATION_CONTEXT(' ');
#5=UNCERTAINTY_MEASURE_WITH_UNIT(LENGTH_MEASURE(1.0E-006),#6,'','');
#6=(CONVERSION_BASED_UNIT('METRE',#10)LENGTH_UNIT()NAMED_UNIT(#11));
#7=(NAMED_UNIT(#12)PLANE_ANGLE_UNIT()SI_UNIT($,.RADIAN.));
#8=(NAMED_UNIT(#12)SOLID_ANGLE_UNIT()SI_UNIT($,.STERADIAN.));
#9=AXIS2_PLACEMENT_3D('',#14,#15,#16);
#10=LENGTH_MEASURE_WITH_UNIT(LENGTH_MEASURE(1.0),#17);
#11=DIMENSIONAL_EXPONENTS(1.0,0.0,0.0,0.0,0.0,0.0,0.0);
#12=DIMENSIONAL_EXPONENTS(0.0,0.0,0.0,0.0,0.0,0.0,0.0);
#13=PRODUCT_CONTEXT('',#4,'mechanical');
#14=CARTESIAN_POINT('',(0.0,0.0,0.0));
#15=DIRECTION('',(0.0,0.0,1.0));
#16=DIRECTION('',(1.0,0.0,0.0));
#17=(NAMED_UNIT(#11)LENGTH_UNIT()SI_UNIT(.MILLI.,.METRE.));
#18=PRESENTATION_STYLE_ASSIGNMENT((#19));
#19=SURFACE_STYLE_USAGE(.BOTH.,#20);
#20=SURFACE_SIDE_STYLE('',(#21));
#21=SURFACE_STYLE_FILL_AREA(#22);
#22=FILL_AREA_STYLE('',(#23));
#23=FILL_AREA_STYLE_COLOUR('',#24);
#24=COLOUR_RGB('',0.70196,0.70196,0.70196);
#25=PRESENTATION_STYLE_ASSIGNMENT((#26));
#26=SURFACE_STYLE_USAGE(.BOTH.,#27);
#27=SURFACE_SIDE_STYLE('',(#28));
#28=SURFACE_STYLE_FILL_AREA(#29);
#29=FILL_AREA_STYLE('',(#30));
#30=FILL_AREA_STYLE_COLOUR('',#31);
#31=COLOUR_RGB('',0.65882,0.65882,0.65882);
#32=SHAPE_DEFINITION_REPRESENTATION(#33,#34);
#33=PRODUCT_DEFINITION_SHAPE('productshape0','',#37);
#34=MANIFOLD_SURFACE_SHAPE_REPRESENTATION('',(#35,#9),#3);
#35=SHELL_BASED_SURFACE_MODEL('shell0',(#40));
#36=PRODUCT('product0','','',(#13));
#37=PRODUCT_DEFINITION('mesh0','',#38,#2);
#38=PRODUCT_DEFINITION_FORMATION_WITH_SPECIFIED_SOURCE('prodsource0','',#36,.NOT_KNOWN.);
#39=STYLED_ITEM('',(#18),#40);
#40=CLOSED_SHELL('',(#78,#101,#124,#147,#170,#193,#216,#239,#262,#285,#308,#331,#354,#377,#400,#423,#446,#469,#492,#515,#538,#561,#584,#607,#630,#653,#676,#699,#722,#745,#768,#791));
#41=CARTESIAN_POINT('',(3.9705259799957275,87.13778686523438,320.875244140625));
#42=VERTEX_POINT('',#41);
#43=CARTESIAN_POINT('',(14.115531921386719,84.12217712402344,361.1285705566406));
#44=VERTEX_POINT('',#43);
#45=CARTESIAN_POINT('',(5.53007173538208,86.28999328613281,318.8061218261719));
#46=VERTEX_POINT('',#45);
#47=CARTESIAN_POINT('',(16.3455810546875,83.0750732421875,361.7198791503906));
#48=VERTEX_POINT('',#47);
#49=CARTESIAN_POINT('',(12.054486274719238,83.98085021972656,363.0150451660156));
#50=VERTEX_POINT('',#49);
#51=CARTESIAN_POINT('',(12.833205223083496,82.834228515625,364.93475341796875));
#52=VERTEX_POINT('',#51);
#53=CARTESIAN_POINT('',(-12.051950454711914,83.98085021972656,363.01513671875));
#54=VERTEX_POINT('',#53);
#55=CARTESIAN_POINT('',(-12.830656051635742,82.834228515625,364.9348449707031));
#56=VERTEX_POINT('',#55);
#57=CARTESIAN_POINT('',(-14.113009452819824,84.12217712402344,361.1286926269531));
#58=VERTEX_POINT('',#57);
#59=CARTESIAN_POINT('',(-16.343055725097656,83.0750732421875,361.7200012207031));
#60=VERTEX_POINT('',#59);
#61=CARTESIAN_POINT('',(-5.52784538269043,86.28999328613281,318.8061828613281));
#62=VERTEX_POINT('',#61);
#63=CARTESIAN_POINT('',(-3.968284845352173,87.13778686523438,320.8752746582031));
#64=VERTEX_POINT('',#63);
#65=CARTESIAN_POINT('',(-16.343055725097656,81.0806655883789,361.5705871582031));
#66=VERTEX_POINT('',#65);
#67=CARTESIAN_POINT('',(-5.527845859527588,84.29558563232422,318.6567687988281));
#68=VERTEX_POINT('',#67);
#69=CARTESIAN_POINT('',(5.530071258544922,84.29558563232422,318.6567077636719));
#70=VERTEX_POINT('',#69);
#71=CARTESIAN_POINT('',(16.3455810546875,81.0806655883789,361.5704650878906));
#72=VERTEX_POINT('',#71);
#73=CARTESIAN_POINT('',(12.833205223083496,80.8398208618164,364.78533935546875));
#74=VERTEX_POINT('',#73);
#75=CARTESIAN_POINT('',(-12.830657005310059,80.8398208618164,364.7854309082031));
#76=VERTEX_POINT('',#75);
#77=STYLED_ITEM('',(#25),#78);
#78=FACE_SURFACE('',(#83),#79,.T.);
#79=PLANE('',#80);
#80=AXIS2_PLACEMENT_3D('',#41,#81,#82);
#81=DIRECTION('',(0.4337259222028785,0.9000709547151006,-0.04188198762606703));
#82=DIRECTION('',(0.2437446377517063,-0.07245325515020791,0.9671292971394406));
#83=FACE_BOUND('',#84,.T.);
#84=EDGE_LOOP('',(#85,#86,#87));
#85=ORIENTED_EDGE('',*,*,#88,.T.);
#86=ORIENTED_EDGE('',*,*,#89,.T.);
#87=ORIENTED_EDGE('',*,*,#90,.T.);
#88=EDGE_CURVE('',#42,#44,#91,.F.);
#89=EDGE_CURVE('',#44,#46,#92,.T.);
#90=EDGE_CURVE('',#46,#42,#93,.T.);
#91=LINE('',#41,#94);
#92=LINE('',#43,#95);
#93=LINE('',#45,#96);
#94=VECTOR('',#97,1.0);
#95=VECTOR('',#98,1.0);
#96=VECTOR('',#99,1.0);
#97=DIRECTION('',(0.2437446377517063,-0.07245325515020791,0.9671292971394406));
#98=DIRECTION('',(-0.1985588822901932,0.05013582788034156,-0.9788057871847826));
#99=DIRECTION('',(-0.5720570051772543,0.3109791772343338,0.758974791514374));
#100=STYLED_ITEM('',(#25),#101);
#101=FACE_SURFACE('',(#106),#102,.T.);
#102=PLANE('',#103);
#103=AXIS2_PLACEMENT_3D('',#45,#104,#105);
#104=DIRECTION('',(0.43372701490947435,0.9000704165640003,-0.04188223685554081));
#105=DIRECTION('',(0.1985588822901932,-0.05013582788034156,0.9788057871847826));
#106=FACE_BOUND('',#107,.T.);
#107=EDGE_LOOP('',(#108,#109,#110));
#108=ORIENTED_EDGE('',*,*,#111,.T.);
#109=ORIENTED_EDGE('',*,*,#112,.T.);
#110=ORIENTED_EDGE('',*,*,#113,.T.);
#111=EDGE_CURVE('',#46,#44,#114,.F.);
#112=EDGE_CURVE('',#44,#48,#115,.T.);
#113=EDGE_CURVE('',#48,#46,#116,.T.);
#114=LINE('',#45,#117);
#115=LINE('',#43,#118);
#116=LINE('',#47,#119);
#117=VECTOR('',#120,1.0);
#118=VECTOR('',#121,1.0);
#119=VECTOR('',#122,1.0);
#120=DIRECTION('',(0.1985588822901932,-0.05013582788034156,0.9788057871847826));
#121=DIRECTION('',(0.8801856113331904,-0.4132849615734511,0.23338558254367162));
#122=DIRECTION('',(-0.24374458637452612,0.07245330138451105,-0.9671293066242985));
#123=STYLED_ITEM('',(#25),#124);
#124=FACE_SURFACE('',(#129),#125,.T.);
#125=PLANE('',#126);
#126=AXIS2_PLACEMENT_3D('',#43,#127,#128);
#127=DIRECTION('',(0.3024076631782135,0.8673143063384087,0.3953675495938141));
#128=DIRECTION('',(-0.7367143501330722,-0.050516861974279695,0.6743144763122595));
#129=FACE_BOUND('',#130,.T.);
#130=EDGE_LOOP('',(#131,#132,#133));
#131=ORIENTED_EDGE('',*,*,#134,.T.);
#132=ORIENTED_EDGE('',*,*,#135,.T.);
#133=ORIENTED_EDGE('',*,*,#136,.T.);
#134=EDGE_CURVE('',#44,#50,#137,.F.);
#135=EDGE_CURVE('',#50,#48,#138,.T.);
#136=EDGE_CURVE('',#48,#44,#139,.T.);
#137=LINE('',#43,#140);
#138=LINE('',#49,#141);
#139=LINE('',#47,#142);
#140=VECTOR('',#143,1.0);
#141=VECTOR('',#144,1.0);
#142=VECTOR('',#145,1.0);
#143=DIRECTION('',(-0.7367143501330722,-0.050516861974279695,0.6743144763122595));
#144=DIRECTION('',(0.9383756854090486,-0.19807511502513137,-0.28322662629223144));
#145=DIRECTION('',(-0.8801856113331904,0.4132849615734511,-0.23338558254367162));
#146=STYLED_ITEM('',(#25),#147);
#147=FACE_SURFACE('',(#152),#148,.T.);
#148=PLANE('',#149);
#149=AXIS2_PLACEMENT_3D('',#47,#150,#151);
#150=DIRECTION('',(0.30240769784442306,0.8673142117345717,0.39536773060996633));
#151=DIRECTION('',(-0.9383756854090486,0.19807511502513137,0.28322662629223144));
#152=FACE_BOUND('',#153,.T.);
#153=EDGE_LOOP('',(#154,#155,#156));
#154=ORIENTED_EDGE('',*,*,#157,.T.);
#155=ORIENTED_EDGE('',*,*,#158,.T.);
#156=ORIENTED_EDGE('',*,*,#159,.T.);
#157=EDGE_CURVE('',#48,#50,#160,.F.);
#158=EDGE_CURVE('',#50,#52,#161,.T.);
#159=EDGE_CURVE('',#52,#48,#162,.T.);
#160=LINE('',#47,#163);
#161=LINE('',#49,#164);
#162=LINE('',#51,#165);
#163=VECTOR('',#166,1.0);
#164=VECTOR('',#167,1.0);
#165=VECTOR('',#168,1.0);
#166=DIRECTION('',(-0.9383756854090486,0.19807511502513137,0.28322662629223144));
#167=DIRECTION('',(0.3288802250256493,-0.4842584155122169,0.8107598809713488));
#168=DIRECTION('',(0.7367146182368025,0.05051675540735349,-0.6743141913821152));
#169=STYLED_ITEM('',(#25),#170);
#170=FACE_SURFACE('',(#175),#171,.T.);
#171=PLANE('',#172);
#172=AXIS2_PLACEMENT_3D('',#49,#173,#174);
#173=DIRECTION('',(1.947475692702359E-06,0.8585181655480226,0.5127831504839697));
#174=DIRECTION('',(-0.9999999999927881,0,3.7978542993276357E-06));
#175=FACE_BOUND('',#176,.T.);
#176=EDGE_LOOP('',(#177,#178,#179));
#177=ORIENTED_EDGE('',*,*,#180,.T.);
#178=ORIENTED_EDGE('',*,*,#181,.T.);
#179=ORIENTED_EDGE('',*,*,#182,.T.);
#180=EDGE_CURVE('',#50,#54,#183,.F.);
#181=EDGE_CURVE('',#54,#52,#184,.T.);
#182=EDGE_CURVE('',#52,#50,#185,.T.);
#183=LINE('',#49,#186);
#184=LINE('',#53,#187);
#185=LINE('',#51,#188);
#186=VECTOR('',#189,1.0);
#187=VECTOR('',#190,1.0);
#188=VECTOR('',#191,1.0);
#189=DIRECTION('',(-0.9999999999927881,0,3.7978542993276357E-06));
#190=DIRECTION('',(0.9959875413730082,-0.04589165310997228,0.07682950998532108));
#191=DIRECTION('',(-0.3288802250256493,0.4842584155122169,-0.8107598809713488));
#192=STYLED_ITEM('',(#25),#193);
#193=FACE_SURFACE('',(#198),#194,.T.);
#194=PLANE('',#195);
#195=AXIS2_PLACEMENT_3D('',#51,#196,#197);
#196=DIRECTION('',(1.8292961625987863E-06,0.8585174911037528,0.5127842796591677));
#197=DIRECTION('',(-0.9959875413730082,0.04589165310997228,-0.07682950998532108));
#198=FACE_BOUND('',#199,.T.);
#199=EDGE_LOOP('',(#200,#201,#202));
#200=ORIENTED_EDGE('',*,*,#203,.T.);
#201=ORIENTED_EDGE('',*,*,#204,.T.);
#202=ORIENTED_EDGE('',*,*,#205,.T.);
#203=EDGE_CURVE('',#52,#54,#206,.F.);
#204=EDGE_CURVE('',#54,#56,#207,.T.);
#205=EDGE_CURVE('',#56,#52,#208,.T.);
#206=LINE('',#51,#209);
#207=LINE('',#53,#210);
#208=LINE('',#55,#211);
#209=VECTOR('',#212,1.0);
#210=VECTOR('',#213,1.0);
#211=VECTOR('',#214,1.0);
#212=DIRECTION('',(-0.9959875413730082,0.04589165310997228,-0.07682950998532108));
#213=DIRECTION('',(-0.3288751961346371,-0.48425931355610913,0.810761384503215));
#214=DIRECTION('',(0.999999999993637,0,-3.5673795690519695E-06));
#215=STYLED_ITEM('',(#25),#216);
#216=FACE_SURFACE('',(#221),#217,.T.);
#217=PLANE('',#218);
#218=AXIS2_PLACEMENT_3D('',#57,#219,#220);
#219=DIRECTION('',(-0.30240551131218435,0.8673123053818832,0.3953735849309859));
#220=DIRECTION('',(-0.8801853569481765,-0.4132853723497814,0.23338581451260845));
#221=FACE_BOUND('',#222,.T.);
#222=EDGE_LOOP('',(#223,#224,#225));
#223=ORIENTED_EDGE('',*,*,#226,.T.);
#224=ORIENTED_EDGE('',*,*,#227,.T.);
#225=ORIENTED_EDGE('',*,*,#228,.T.);
#226=EDGE_CURVE('',#58,#60,#229,.F.);
#227=EDGE_CURVE('',#60,#54,#230,.T.);
#228=EDGE_CURVE('',#54,#58,#231,.T.);
#229=LINE('',#57,#232);
#230=LINE('',#59,#233);
#231=LINE('',#53,#234);
#232=VECTOR('',#235,1.0);
#233=VECTOR('',#236,1.0);
#234=VECTOR('',#237,1.0);
#235=DIRECTION('',(-0.8801853569481765,-0.4132853723497814,0.23338581451260845));
#236=DIRECTION('',(0.9383777330675445,0.19807506301784847,0.2832198783515935));
#237=DIRECTION('',(-0.7367219513693244,0.05051705594559026,-0.6743061570452735));
#238=STYLED_ITEM('',(#25),#239);
#239=FACE_SURFACE('',(#244),#240,.T.);
#240=PLANE('',#241);
#241=AXIS2_PLACEMENT_3D('',#53,#242,#243);
#242=DIRECTION('',(-0.30240495978161236,0.8673138105759957,0.3953707048879916));
#243=DIRECTION('',(-0.9383777330675445,-0.19807506301784847,-0.2832198783515935));
#244=FACE_BOUND('',#245,.T.);
#245=EDGE_LOOP('',(#246,#247,#248));
#246=ORIENTED_EDGE('',*,*,#249,.T.);
#247=ORIENTED_EDGE('',*,*,#250,.T.);
#248=ORIENTED_EDGE('',*,*,#251,.T.);
#249=EDGE_CURVE('',#54,#60,#252,.F.);
#250=EDGE_CURVE('',#60,#56,#253,.T.);
#251=EDGE_CURVE('',#56,#54,#254,.T.);
#252=LINE('',#53,#255);
#253=LINE('',#59,#256);
#254=LINE('',#55,#257);
#255=VECTOR('',#258,1.0);
#256=VECTOR('',#259,1.0);
#257=VECTOR('',#260,1.0);
#258=DIRECTION('',(-0.9383777330675445,-0.19807506301784847,-0.2832198783515935));
#259=DIRECTION('',(0.7367200847084046,-0.05051678733924171,0.6743082166073339));
#260=DIRECTION('',(0.3288751961346371,0.48425931355610913,-0.810761384503215));
#261=STYLED_ITEM('',(#25),#262);
#262=FACE_SURFACE('',(#267),#263,.T.);
#263=PLANE('',#264);
#264=AXIS2_PLACEMENT_3D('',#59,#265,#266);
#265=DIRECTION('',(-0.4337268454512296,0.9000706443785568,-0.04187909577456156));
#266=DIRECTION('',(0.8801853569481765,0.4132853723497814,-0.23338581451260845));
#267=FACE_BOUND('',#268,.T.);
#268=EDGE_LOOP('',(#269,#270,#271));
#269=ORIENTED_EDGE('',*,*,#272,.T.);
#270=ORIENTED_EDGE('',*,*,#273,.T.);
#271=ORIENTED_EDGE('',*,*,#274,.T.);
#272=EDGE_CURVE('',#60,#58,#275,.F.);
#273=EDGE_CURVE('',#58,#62,#276,.T.);
#274=EDGE_CURVE('',#62,#60,#277,.T.);
#275=LINE('',#59,#278);
#276=LINE('',#57,#279);
#277=LINE('',#61,#280);
#278=VECTOR('',#281,1.0);
#279=VECTOR('',#282,1.0);
#280=VECTOR('',#283,1.0);
#281=DIRECTION('',(0.8801853569481765,0.4132853723497814,-0.23338581451260845));
#282=DIRECTION('',(0.1985520295719284,0.050135826783233244,-0.9788071773468101));
#283=DIRECTION('',(-0.2437379245035839,-0.07245332398979396,0.9671309838907629));
#284=STYLED_ITEM('',(#25),#285);
#285=FACE_SURFACE('',(#290),#286,.T.);
#286=PLANE('',#287);
#287=AXIS2_PLACEMENT_3D('',#61,#288,#289);
#288=DIRECTION('',(-0.4337264972953157,0.9000708158428274,-0.04187901636814925));
#289=DIRECTION('',(-0.1985520295719284,-0.050135826783233244,0.9788071773468101));
#290=FACE_BOUND('',#291,.T.);
#291=EDGE_LOOP('',(#292,#293,#294));
#292=ORIENTED_EDGE('',*,*,#295,.T.);
#293=ORIENTED_EDGE('',*,*,#296,.T.);
#294=ORIENTED_EDGE('',*,*,#297,.T.);
#295=EDGE_CURVE('',#62,#58,#298,.F.);
#296=EDGE_CURVE('',#58,#64,#299,.T.);
#297=EDGE_CURVE('',#64,#62,#300,.T.);
#298=LINE('',#61,#301);
#299=LINE('',#57,#302);
#300=LINE('',#63,#303);
#301=VECTOR('',#304,1.0);
#302=VECTOR('',#305,1.0);
#303=VECTOR('',#306,1.0);
#304=DIRECTION('',(-0.1985520295719284,-0.050135826783233244,0.9788071773468101));
#305=DIRECTION('',(0.24373776145287135,0.07245322038581227,-0.9671310327446163));
#306=DIRECTION('',(-0.5720655131972067,-0.3109808547360291,-0.7589676914059421));
#307=STYLED_ITEM('',(#25),#308);
#308=FACE_SURFACE('',(#313),#309,.T.);
#309=PLANE('',#310);
#310=AXIS2_PLACEMENT_3D('',#45,#311,#312);
#311=DIRECTION('',(-2.092726537665706E-06,0.9253371234688762,-0.3791453651648221));
#312=DIRECTION('',(-0.9999999999847671,0,5.519588869889197E-06));
#313=FACE_BOUND('',#314,.T.);
#314=EDGE_LOOP('',(#315,#316,#317));
#315=ORIENTED_EDGE('',*,*,#318,.T.);
#316=ORIENTED_EDGE('',*,*,#319,.T.);
#317=ORIENTED_EDGE('',*,*,#320,.T.);
#318=EDGE_CURVE('',#46,#62,#321,.F.);
#319=EDGE_CURVE('',#62,#42,#322,.T.);
#320=EDGE_CURVE('',#42,#46,#323,.T.);
#321=LINE('',#45,#324);
#322=LINE('',#61,#325);
#323=LINE('',#41,#326);
#324=VECTOR('',#327,1.0);
#325=VECTOR('',#328,1.0);
#326=VECTOR('',#329,1.0);
#327=DIRECTION('',(-0.9999999999847671,0,5.519588869889197E-06));
#328=DIRECTION('',(0.9733919083284136,0.08688177986724534,0.2120371409160874));
#329=DIRECTION('',(0.5720570051772543,-0.3109791772343338,-0.758974791514374));
#330=STYLED_ITEM('',(#25),#331);
#331=FACE_SURFACE('',(#336),#332,.T.);
#332=PLANE('',#333);
#333=AXIS2_PLACEMENT_3D('',#41,#334,#335);
#334=DIRECTION('',(-1.4574820786708768E-06,0.9253361003600761,-0.3791478621438908));
#335=DIRECTION('',(-0.9733919083284136,-0.08688177986724534,-0.2120371409160874));
#336=FACE_BOUND('',#337,.T.);
#337=EDGE_LOOP('',(#338,#339,#340));
#338=ORIENTED_EDGE('',*,*,#341,.T.);
#339=ORIENTED_EDGE('',*,*,#342,.T.);
#340=ORIENTED_EDGE('',*,*,#343,.T.);
#341=EDGE_CURVE('',#42,#62,#344,.F.);
#342=EDGE_CURVE('',#62,#64,#345,.T.);
#343=EDGE_CURVE('',#64,#42,#346,.T.);
#344=LINE('',#41,#347);
#345=LINE('',#61,#348);
#346=LINE('',#63,#349);
#347=VECTOR('',#350,1.0);
#348=VECTOR('',#351,1.0);
#349=VECTOR('',#352,1.0);
#350=DIRECTION('',(-0.9733919083284136,-0.08688177986724534,-0.2120371409160874));
#351=DIRECTION('',(0.5720655131972067,0.3109808547360291,0.7589676914059421));
#352=DIRECTION('',(0.9999999999926115,0,-3.844099424479882E-06));
#353=STYLED_ITEM('',(#25),#354);
#354=FACE_SURFACE('',(#359),#355,.T.);
#355=PLANE('',#356);
#356=AXIS2_PLACEMENT_3D('',#59,#357,#358);
#357=DIRECTION('',(-0.9698411334639564,0.018208967580429704,-0.24305680270464203));
#358=DIRECTION('',(0.2437379245035839,0.07245332398979396,-0.9671309838907629));
#359=FACE_BOUND('',#360,.T.);
#360=EDGE_LOOP('',(#361,#362,#363));
#361=ORIENTED_EDGE('',*,*,#364,.T.);
#362=ORIENTED_EDGE('',*,*,#365,.T.);
#363=ORIENTED_EDGE('',*,*,#366,.T.);
#364=EDGE_CURVE('',#60,#62,#367,.F.);
#365=EDGE_CURVE('',#62,#66,#368,.T.);
#366=EDGE_CURVE('',#66,#60,#369,.T.);
#367=LINE('',#59,#370);
#368=LINE('',#61,#371);
#369=LINE('',#65,#372);
#370=VECTOR('',#373,1.0);
#371=VECTOR('',#374,1.0);
#372=VECTOR('',#375,1.0);
#373=DIRECTION('',(0.2437379245035839,0.07245332398979396,-0.9671309838907629));
#374=DIRECTION('',(-0.24349072231401186,-0.11728139571385944,0.9627862391862535));
#375=DIRECTION('',(0,0.9972055157177614,0.07470715777001213));
#376=STYLED_ITEM('',(#25),#377);
#377=FACE_SURFACE('',(#382),#378,.T.);
#378=PLANE('',#379);
#379=AXIS2_PLACEMENT_3D('',#65,#380,#381);
#380=DIRECTION('',(-0.96984113600417,0.01820919740768465,-0.24305677535075837));
#381=DIRECTION('',(0.24349072231401186,0.11728139571385944,-0.9627862391862535));
#382=FACE_BOUND('',#383,.T.);
#383=EDGE_LOOP('',(#384,#385,#386));
#384=ORIENTED_EDGE('',*,*,#387,.T.);
#385=ORIENTED_EDGE('',*,*,#388,.T.);
#386=ORIENTED_EDGE('',*,*,#389,.T.);
#387=EDGE_CURVE('',#66,#62,#390,.F.);
#388=EDGE_CURVE('',#62,#68,#391,.T.);
#389=EDGE_CURVE('',#68,#66,#392,.T.);
#390=LINE('',#65,#393);
#391=LINE('',#61,#394);
#392=LINE('',#67,#395);
#393=VECTOR('',#396,1.0);
#394=VECTOR('',#397,1.0);
#395=VECTOR('',#398,1.0);
#396=DIRECTION('',(0.24349072231401186,0.11728139571385944,-0.9627862391862535));
#397=DIRECTION('',(-2.3841898287508297E-07,-0.9972055157177331,-0.07470715777001001));
#398=DIRECTION('',(-0.24373791439571896,-0.07245332417956923,0.9671309864239463));
#399=STYLED_ITEM('',(#25),#400);
#400=FACE_SURFACE('',(#405),#401,.T.);
#401=PLANE('',#402);
#402=AXIS2_PLACEMENT_3D('',#61,#403,#404);
#403=DIRECTION('',(-5.5041644655478E-06,0.0747071577701891,-0.9972055157025579));
#404=DIRECTION('',(0.9999999999847671,0,-5.519588869889197E-06));
#405=FACE_BOUND('',#406,.T.);
#406=EDGE_LOOP('',(#407,#408,#409));
#407=ORIENTED_EDGE('',*,*,#410,.T.);
#408=ORIENTED_EDGE('',*,*,#411,.T.);
#409=ORIENTED_EDGE('',*,*,#412,.T.);
#410=EDGE_CURVE('',#62,#46,#413,.F.);
#411=EDGE_CURVE('',#46,#68,#414,.T.);
#412=EDGE_CURVE('',#68,#62,#415,.T.);
#413=LINE('',#61,#416);
#414=LINE('',#45,#417);
#415=LINE('',#67,#418);
#416=VECTOR('',#419,1.0);
#417=VECTOR('',#420,1.0);
#418=VECTOR('',#421,1.0);
#419=DIRECTION('',(0.9999999999847671,0,-5.519588869889197E-06));
#420=DIRECTION('',(-0.9840345449259343,-0.17748061614383662,-0.013290797027025434));
#421=DIRECTION('',(2.3841898287508297E-07,0.9972055157177331,0.07470715777001001));
#422=STYLED_ITEM('',(#25),#423);
#423=FACE_SURFACE('',(#428),#424,.T.);
#424=PLANE('',#425);
#425=AXIS2_PLACEMENT_3D('',#67,#426,#427);
#426=DIRECTION('',(-5.5041644655478E-06,0.0747071577701891,-0.9972055157025579));
#427=DIRECTION('',(0.9840345449259343,0.17748061614383662,0.013290797027025434));
#428=FACE_BOUND('',#429,.T.);
#429=EDGE_LOOP('',(#430,#431,#432));
#430=ORIENTED_EDGE('',*,*,#433,.T.);
#431=ORIENTED_EDGE('',*,*,#434,.T.);
#432=ORIENTED_EDGE('',*,*,#435,.T.);
#433=EDGE_CURVE('',#68,#46,#436,.F.);
#434=EDGE_CURVE('',#46,#70,#437,.T.);
#435=EDGE_CURVE('',#70,#68,#438,.T.);
#436=LINE('',#67,#439);
#437=LINE('',#45,#440);
#438=LINE('',#69,#441);
#439=VECTOR('',#442,1.0);
#440=VECTOR('',#443,1.0);
#441=VECTOR('',#444,1.0);
#442=DIRECTION('',(0.9840345449259343,0.17748061614383662,0.013290797027025434));
#443=DIRECTION('',(-2.3841898287508297E-07,-0.9972055157177331,-0.07470715777001001));
#444=DIRECTION('',(-0.9999999999847671,0,5.519588869889197E-06));
#445=STYLED_ITEM('',(#25),#446);
#446=FACE_SURFACE('',(#451),#447,.T.);
#447=PLANE('',#448);
#448=AXIS2_PLACEMENT_3D('',#45,#449,#450);
#449=DIRECTION('',(0.969839459195751,0.018209234687886523,-0.24306346323331818));
#450=DIRECTION('',(0.24374458637452612,-0.07245330138451105,0.9671293066242985));
#451=FACE_BOUND('',#452,.T.);
#452=EDGE_LOOP('',(#453,#454,#455));
#453=ORIENTED_EDGE('',*,*,#456,.T.);
#454=ORIENTED_EDGE('',*,*,#457,.T.);
#455=ORIENTED_EDGE('',*,*,#458,.T.);
#456=EDGE_CURVE('',#46,#48,#459,.F.);
#457=EDGE_CURVE('',#48,#70,#460,.T.);
#458=EDGE_CURVE('',#70,#46,#461,.T.);
#459=LINE('',#45,#462);
#460=LINE('',#47,#463);
#461=LINE('',#69,#464);
#462=VECTOR('',#465,1.0);
#463=VECTOR('',#466,1.0);
#464=VECTOR('',#467,1.0);
#465=DIRECTION('',(0.24374458637452612,-0.07245330138451105,0.9671293066242985));
#466=DIRECTION('',(-0.24349737231866847,0.027478275687629988,-0.9695122351157506));
#467=DIRECTION('',(2.3841898287508297E-07,0.9972055157177331,0.07470715777001001));
#468=STYLED_ITEM('',(#25),#469);
#469=FACE_SURFACE('',(#474),#470,.T.);
#470=PLANE('',#471);
#471=AXIS2_PLACEMENT_3D('',#69,#472,#473);
#472=DIRECTION('',(0.969839456655394,0.018209466024998927,-0.24306345603865373));
#473=DIRECTION('',(0.24349737231866847,-0.027478275687629988,0.9695122351157506));
#474=FACE_BOUND('',#475,.T.);
#475=EDGE_LOOP('',(#476,#477,#478));
#476=ORIENTED_EDGE('',*,*,#479,.T.);
#477=ORIENTED_EDGE('',*,*,#480,.T.);
#478=ORIENTED_EDGE('',*,*,#481,.T.);
#479=EDGE_CURVE('',#70,#48,#482,.F.);
#480=EDGE_CURVE('',#48,#72,#483,.T.);
#481=EDGE_CURVE('',#72,#70,#484,.T.);
#482=LINE('',#69,#485);
#483=LINE('',#47,#486);
#484=LINE('',#71,#487);
#485=VECTOR('',#488,1.0);
#486=VECTOR('',#489,1.0);
#487=VECTOR('',#490,1.0);
#488=DIRECTION('',(0.24349737231866847,-0.027478275687629988,0.9695122351157506));
#489=DIRECTION('',(0,-0.9972055157177614,-0.07470715777001213));
#490=DIRECTION('',(-0.24374459648235292,0.07245330119473069,-0.967129304091051));
#491=STYLED_ITEM('',(#25),#492);
#492=FACE_SURFACE('',(#497),#493,.T.);
#493=PLANE('',#494);
#494=AXIS2_PLACEMENT_3D('',#43,#495,#496);
#495=DIRECTION('',(-6.642795127175259E-08,0.9972055680309228,0.07470645948055926));
#496=DIRECTION('',(-0.2437446377517063,0.07245325515020791,-0.9671292971394406));
#497=FACE_BOUND('',#498,.T.);
#498=EDGE_LOOP('',(#499,#500,#501));
#499=ORIENTED_EDGE('',*,*,#502,.T.);
#500=ORIENTED_EDGE('',*,*,#503,.T.);
#501=ORIENTED_EDGE('',*,*,#504,.T.);
#502=EDGE_CURVE('',#44,#42,#505,.F.);
#503=EDGE_CURVE('',#42,#50,#506,.T.);
#504=EDGE_CURVE('',#50,#44,#507,.T.);
#505=LINE('',#43,#508);
#506=LINE('',#41,#509);
#507=LINE('',#49,#510);
#508=VECTOR('',#511,1.0);
#509=VECTOR('',#512,1.0);
#510=VECTOR('',#513,1.0);
#511=DIRECTION('',(-0.2437446377517063,0.07245325515020791,-0.9671292971394406));
#512=DIRECTION('',(0.18789344833407703,-0.07337588148272373,0.9794447570382736));
#513=DIRECTION('',(0.7367143501330722,0.050516861974279695,-0.6743144763122595));
#514=STYLED_ITEM('',(#25),#515);
#515=FACE_SURFACE('',(#520),#516,.T.);
#516=PLANE('',#517);
#517=AXIS2_PLACEMENT_3D('',#49,#518,#519);
#518=DIRECTION('',(2.83723994642159E-07,0.9972055730350413,0.07470639268345358));
#519=DIRECTION('',(-0.18789344833407703,0.07337588148272373,-0.9794447570382736));
#520=FACE_BOUND('',#521,.T.);
#521=EDGE_LOOP('',(#522,#523,#524));
#522=ORIENTED_EDGE('',*,*,#525,.T.);
#523=ORIENTED_EDGE('',*,*,#526,.T.);
#524=ORIENTED_EDGE('',*,*,#527,.T.);
#525=EDGE_CURVE('',#50,#42,#528,.F.);
#526=EDGE_CURVE('',#42,#54,#529,.T.);
#527=EDGE_CURVE('',#54,#50,#530,.T.);
#528=LINE('',#49,#531);
#529=LINE('',#41,#532);
#530=LINE('',#53,#533);
#531=VECTOR('',#534,1.0);
#532=VECTOR('',#535,1.0);
#533=VECTOR('',#536,1.0);
#534=DIRECTION('',(-0.18789344833407703,0.07337588148272373,-0.9794447570382736));
#535=DIRECTION('',(-0.3545301942992125,-0.06985370625340609,0.932431660258716));
#536=DIRECTION('',(0.9999999999927881,0,-3.7978542993276357E-06));
#537=STYLED_ITEM('',(#25),#538);
#538=FACE_SURFACE('',(#543),#539,.T.);
#539=PLANE('',#540);
#540=AXIS2_PLACEMENT_3D('',#53,#541,#542);
#541=DIRECTION('',(2.871788061429508E-07,0.9972055729371808,0.07470639398971454));
#542=DIRECTION('',(0.3545301942992125,0.06985370625340609,-0.932431660258716));
#543=FACE_BOUND('',#544,.T.);
#544=EDGE_LOOP('',(#545,#546,#547));
#545=ORIENTED_EDGE('',*,*,#548,.T.);
#546=ORIENTED_EDGE('',*,*,#549,.T.);
#547=ORIENTED_EDGE('',*,*,#550,.T.);
#548=EDGE_CURVE('',#54,#42,#551,.F.);
#549=EDGE_CURVE('',#42,#64,#552,.T.);
#550=EDGE_CURVE('',#64,#54,#553,.T.);
#551=LINE('',#53,#554);
#552=LINE('',#41,#555);
#553=LINE('',#63,#556);
#554=VECTOR('',#557,1.0);
#555=VECTOR('',#558,1.0);
#556=VECTOR('',#559,1.0);
#557=DIRECTION('',(0.3545301942992125,0.06985370625340609,-0.932431660258716));
#558=DIRECTION('',(-0.9999999999926115,0,3.844099424479882E-06));
#559=DIRECTION('',(-0.18788657976862602,-0.07337587395796322,0.9794460752199443));
#560=STYLED_ITEM('',(#25),#561);
#561=FACE_SURFACE('',(#566),#562,.T.);
#562=PLANE('',#563);
#563=AXIS2_PLACEMENT_3D('',#53,#564,#565);
#564=DIRECTION('',(1.091623570725355E-06,0.997205561440426,0.07470654744460584));
#565=DIRECTION('',(0.18788657976862602,0.07337587395796322,-0.9794460752199443));
#566=FACE_BOUND('',#567,.T.);
#567=EDGE_LOOP('',(#568,#569,#570));
#568=ORIENTED_EDGE('',*,*,#571,.T.);
#569=ORIENTED_EDGE('',*,*,#572,.T.);
#570=ORIENTED_EDGE('',*,*,#573,.T.);
#571=EDGE_CURVE('',#54,#64,#574,.F.);
#572=EDGE_CURVE('',#64,#58,#575,.T.);
#573=EDGE_CURVE('',#58,#54,#576,.T.);
#574=LINE('',#53,#577);
#575=LINE('',#63,#578);
#576=LINE('',#57,#579);
#577=VECTOR('',#580,1.0);
#578=VECTOR('',#581,1.0);
#579=VECTOR('',#582,1.0);
#580=DIRECTION('',(0.18788657976862602,0.07337587395796322,-0.9794460752199443));
#581=DIRECTION('',(-0.24373776145287135,-0.07245322038581227,0.9671310327446163));
#582=DIRECTION('',(0.7367219513693244,-0.05051705594559026,0.6743061570452735));
#583=STYLED_ITEM('',(#25),#584);
#584=FACE_SURFACE('',(#589),#585,.T.);
#585=PLANE('',#586);
#586=AXIS2_PLACEMENT_3D('',#47,#587,#588);
#587=DIRECTION('',(0.6762037941893416,-0.055037855216098205,0.7346558808157397));
#588=DIRECTION('',(-0.7367146182368025,-0.05051675540735349,0.6743141913821152));
#589=FACE_BOUND('',#590,.T.);
#590=EDGE_LOOP('',(#591,#592,#593));
#591=ORIENTED_EDGE('',*,*,#594,.T.);
#592=ORIENTED_EDGE('',*,*,#595,.T.);
#593=ORIENTED_EDGE('',*,*,#596,.T.);
#594=EDGE_CURVE('',#48,#52,#597,.F.);
#595=EDGE_CURVE('',#52,#72,#598,.T.);
#596=EDGE_CURVE('',#72,#48,#599,.T.);
#597=LINE('',#47,#600);
#598=LINE('',#51,#601);
#599=LINE('',#71,#602);
#600=VECTOR('',#603,1.0);
#601=VECTOR('',#604,1.0);
#602=VECTOR('',#605,1.0);
#603=DIRECTION('',(-0.7367146182368025,-0.05051675540735349,0.6743141913821152));
#604=DIRECTION('',(0.6793598123822008,-0.33917218383496717,-0.6507168931514228));
#605=DIRECTION('',(0,0.9972055157177614,0.07470715777001213));
#606=STYLED_ITEM('',(#25),#607);
#607=FACE_SURFACE('',(#612),#608,.T.);
#608=PLANE('',#609);
#609=AXIS2_PLACEMENT_3D('',#71,#610,#611);
#610=DIRECTION('',(0.6762037941893416,-0.055037855216098205,0.7346558808157397));
#611=DIRECTION('',(-0.6793598123822008,0.33917218383496717,0.6507168931514228));
#612=FACE_BOUND('',#613,.T.);
#613=EDGE_LOOP('',(#614,#615,#616));
#614=ORIENTED_EDGE('',*,*,#617,.T.);
#615=ORIENTED_EDGE('',*,*,#618,.T.);
#616=ORIENTED_EDGE('',*,*,#619,.T.);
#617=EDGE_CURVE('',#72,#52,#620,.F.);
#618=EDGE_CURVE('',#52,#74,#621,.T.);
#619=EDGE_CURVE('',#74,#72,#622,.T.);
#620=LINE('',#71,#623);
#621=LINE('',#51,#624);
#622=LINE('',#73,#625);
#623=VECTOR('',#626,1.0);
#624=VECTOR('',#627,1.0);
#625=VECTOR('',#628,1.0);
#626=DIRECTION('',(-0.6793598123822008,0.33917218383496717,0.6507168931514228));
#627=DIRECTION('',(0,-0.9972055157177614,-0.07470715777001213));
#628=DIRECTION('',(0.7367146182368025,0.05051675540735349,-0.6743141913821152));
#629=STYLED_ITEM('',(#25),#630);
#630=FACE_SURFACE('',(#635),#631,.T.);
#631=PLANE('',#632);
#632=AXIS2_PLACEMENT_3D('',#51,#633,#634);
#633=DIRECTION('',(3.5574105829176006E-06,-0.0747071577695394,0.9972055157114514));
#634=DIRECTION('',(-0.999999999993637,0,3.5673795690519695E-06));
#635=FACE_BOUND('',#636,.T.);
#636=EDGE_LOOP('',(#637,#638,#639));
#637=ORIENTED_EDGE('',*,*,#640,.T.);
#638=ORIENTED_EDGE('',*,*,#641,.T.);
#639=ORIENTED_EDGE('',*,*,#642,.T.);
#640=EDGE_CURVE('',#52,#56,#643,.F.);
#641=EDGE_CURVE('',#56,#74,#644,.T.);
#642=EDGE_CURVE('',#74,#52,#645,.T.);
#643=LINE('',#51,#646);
#644=LINE('',#55,#647);
#645=LINE('',#73,#648);
#646=VECTOR('',#649,1.0);
#647=VECTOR('',#650,1.0);
#648=VECTOR('',#651,1.0);
#649=DIRECTION('',(-0.999999999993637,0,3.5673795690519695E-06));
#650=DIRECTION('',(0.9969771624006665,-0.07747777554124172,-0.005807921202650893));
#651=DIRECTION('',(0,0.9972055157177614,0.07470715777001213));
#652=STYLED_ITEM('',(#25),#653);
#653=FACE_SURFACE('',(#658),#654,.T.);
#654=PLANE('',#655);
#655=AXIS2_PLACEMENT_3D('',#73,#656,#657);
#656=DIRECTION('',(3.5574104507230515E-06,-0.07470715777123098,0.9972055157113248));
#657=DIRECTION('',(-0.9969771624006665,0.07747777554124172,0.005807921202650893));
#658=FACE_BOUND('',#659,.T.);
#659=EDGE_LOOP('',(#660,#661,#662));
#660=ORIENTED_EDGE('',*,*,#663,.T.);
#661=ORIENTED_EDGE('',*,*,#664,.T.);
#662=ORIENTED_EDGE('',*,*,#665,.T.);
#663=EDGE_CURVE('',#74,#56,#666,.F.);
#664=EDGE_CURVE('',#56,#76,#667,.T.);
#665=EDGE_CURVE('',#76,#74,#668,.T.);
#666=LINE('',#73,#669);
#667=LINE('',#55,#670);
#668=LINE('',#75,#671);
#669=VECTOR('',#672,1.0);
#670=VECTOR('',#673,1.0);
#671=VECTOR('',#674,1.0);
#672=DIRECTION('',(-0.9969771624006665,0.07747777554124172,0.005807921202650893));
#673=DIRECTION('',(-4.768379657501253E-07,-0.997205515717648,-0.07470715777000364));
#674=DIRECTION('',(0.999999999993637,0,-3.5673794364874224E-06));
#675=STYLED_ITEM('',(#25),#676);
#676=FACE_SURFACE('',(#681),#677,.T.);
#677=PLANE('',#678);
#678=AXIS2_PLACEMENT_3D('',#55,#679,#680);
#679=DIRECTION('',(-0.6761978384963998,-0.055037942064886956,0.7346613560995698));
#680=DIRECTION('',(-0.7367200847084046,0.05051678733924171,-0.6743082166073339));
#681=FACE_BOUND('',#682,.T.);
#682=EDGE_LOOP('',(#683,#684,#685));
#683=ORIENTED_EDGE('',*,*,#686,.T.);
#684=ORIENTED_EDGE('',*,*,#687,.T.);
#685=ORIENTED_EDGE('',*,*,#688,.T.);
#686=EDGE_CURVE('',#56,#60,#689,.F.);
#687=EDGE_CURVE('',#60,#76,#690,.T.);
#688=EDGE_CURVE('',#76,#56,#691,.T.);
#689=LINE('',#55,#692);
#690=LINE('',#59,#693);
#691=LINE('',#75,#694);
#692=VECTOR('',#695,1.0);
#693=VECTOR('',#696,1.0);
#694=VECTOR('',#697,1.0);
#695=DIRECTION('',(-0.7367200847084046,0.05051678733924171,-0.6743082166073339));
#696=DIRECTION('',(0.6793648207771497,-0.4323403901235721,0.5929124955322064));
#697=DIRECTION('',(4.768379657501253E-07,0.997205515717648,0.07470715777000364));
#698=STYLED_ITEM('',(#25),#699);
#699=FACE_SURFACE('',(#704),#700,.T.);
#700=PLANE('',#701);
#701=AXIS2_PLACEMENT_3D('',#75,#702,#703);
#702=DIRECTION('',(-0.6761979381458977,-0.05503825676769292,0.7346612408036852));
#703=DIRECTION('',(-0.6793648207771497,0.4323403901235721,-0.5929124955322064));
#704=FACE_BOUND('',#705,.T.);
#705=EDGE_LOOP('',(#706,#707,#708));
#706=ORIENTED_EDGE('',*,*,#709,.T.);
#707=ORIENTED_EDGE('',*,*,#710,.T.);
#708=ORIENTED_EDGE('',*,*,#711,.T.);
#709=EDGE_CURVE('',#76,#60,#712,.F.);
#710=EDGE_CURVE('',#60,#66,#713,.T.);
#711=EDGE_CURVE('',#66,#76,#714,.T.);
#712=LINE('',#75,#715);
#713=LINE('',#59,#716);
#714=LINE('',#65,#717);
#715=VECTOR('',#718,1.0);
#716=VECTOR('',#719,1.0);
#717=VECTOR('',#720,1.0);
#718=DIRECTION('',(-0.6793648207771497,0.4323403901235721,-0.5929124955322064));
#719=DIRECTION('',(0,-0.9972055157177614,-0.07470715777001213));
#720=DIRECTION('',(0.7367199932452195,-0.050516794783765785,0.6743083159783354));
#721=STYLED_ITEM('',(#25),#722);
#722=FACE_SURFACE('',(#727),#723,.T.);
#723=PLANE('',#724);
#724=AXIS2_PLACEMENT_3D('',#65,#725,#726);
#725=DIRECTION('',(-5.442359828879379E-07,-0.9972055634786746,-0.07470652024343502));
#726=DIRECTION('',(0.24373791439571896,0.07245332417956923,-0.9671309864239463));
#727=FACE_BOUND('',#728,.T.);
#728=EDGE_LOOP('',(#729,#730,#731));
#729=ORIENTED_EDGE('',*,*,#732,.T.);
#730=ORIENTED_EDGE('',*,*,#733,.T.);
#731=ORIENTED_EDGE('',*,*,#734,.T.);
#732=EDGE_CURVE('',#66,#68,#735,.F.);
#733=EDGE_CURVE('',#68,#76,#736,.T.);
#734=EDGE_CURVE('',#76,#66,#737,.T.);
#735=LINE('',#65,#738);
#736=LINE('',#67,#739);
#737=LINE('',#75,#740);
#738=VECTOR('',#741,1.0);
#739=VECTOR('',#742,1.0);
#740=VECTOR('',#743,1.0);
#741=DIRECTION('',(0.24373791439571896,0.07245332417956923,-0.9671309864239463));
#742=DIRECTION('',(-0.15594023913219754,-0.07379251276528412,0.9850062471269807));
#743=DIRECTION('',(-0.7367199932452195,0.050516794783765785,-0.6743083159783354));
#744=STYLED_ITEM('',(#25),#745);
#745=FACE_SURFACE('',(#750),#746,.T.);
#746=PLANE('',#747);
#747=AXIS2_PLACEMENT_3D('',#75,#748,#749);
#748=DIRECTION('',(-4.123491630469281E-07,-0.9972055650342152,-0.0747064994804449));
#749=DIRECTION('',(0.15594023913219754,0.07379251276528412,-0.9850062471269807));
#750=FACE_BOUND('',#751,.T.);
#751=EDGE_LOOP('',(#752,#753,#754));
#752=ORIENTED_EDGE('',*,*,#755,.T.);
#753=ORIENTED_EDGE('',*,*,#756,.T.);
#754=ORIENTED_EDGE('',*,*,#757,.T.);
#755=EDGE_CURVE('',#76,#68,#758,.F.);
#756=EDGE_CURVE('',#68,#70,#759,.T.);
#757=EDGE_CURVE('',#70,#76,#760,.T.);
#758=LINE('',#75,#761);
#759=LINE('',#67,#762);
#760=LINE('',#69,#763);
#761=VECTOR('',#764,1.0);
#762=VECTOR('',#765,1.0);
#763=VECTOR('',#766,1.0);
#764=DIRECTION('',(0.15594023913219754,0.07379251276528412,-0.9850062471269807));
#765=DIRECTION('',(0.9999999999847671,0,-5.519588869889197E-06));
#766=DIRECTION('',(-0.36892162280388097,-0.06943658927048173,0.9268632025807441));
#767=STYLED_ITEM('',(#25),#768);
#768=FACE_SURFACE('',(#773),#769,.T.);
#769=PLANE('',#770);
#770=AXIS2_PLACEMENT_3D('',#75,#771,#772);
#771=DIRECTION('',(-2.66506224088805E-07,-0.997205569358873,-0.07470644175420862));
#772=DIRECTION('',(0.36892162280388097,0.06943658927048173,-0.9268632025807441));
#773=FACE_BOUND('',#774,.T.);
#774=EDGE_LOOP('',(#775,#776,#777));
#775=ORIENTED_EDGE('',*,*,#778,.T.);
#776=ORIENTED_EDGE('',*,*,#779,.T.);
#777=ORIENTED_EDGE('',*,*,#780,.T.);
#778=EDGE_CURVE('',#76,#70,#781,.F.);
#779=EDGE_CURVE('',#70,#74,#782,.T.);
#780=EDGE_CURVE('',#74,#76,#783,.T.);
#781=LINE('',#75,#784);
#782=LINE('',#69,#785);
#783=LINE('',#73,#786);
#784=VECTOR('',#787,1.0);
#785=VECTOR('',#788,1.0);
#786=VECTOR('',#789,1.0);
#787=DIRECTION('',(0.36892162280388097,0.06943658927048173,-0.9268632025807441));
#788=DIRECTION('',(0.15594706488981258,-0.07379248080715713,0.9850051688841932));
#789=DIRECTION('',(-0.999999999993637,0,3.5673794364874224E-06));
#790=STYLED_ITEM('',(#25),#791);
#791=FACE_SURFACE('',(#796),#792,.T.);
#792=PLANE('',#793);
#793=AXIS2_PLACEMENT_3D('',#73,#794,#795);
#794=DIRECTION('',(-6.22143150493013E-08,-0.9972055669493745,-0.07470647391741114));
#795=DIRECTION('',(-0.15594706488981258,0.07379248080715713,-0.9850051688841932));
#796=FACE_BOUND('',#797,.T.);
#797=EDGE_LOOP('',(#798,#799,#800));
#798=ORIENTED_EDGE('',*,*,#801,.T.);
#799=ORIENTED_EDGE('',*,*,#802,.T.);
#800=ORIENTED_EDGE('',*,*,#803,.T.);
#801=EDGE_CURVE('',#74,#70,#804,.F.);
#802=EDGE_CURVE('',#70,#72,#805,.T.);
#803=EDGE_CURVE('',#72,#74,#806,.T.);
#804=LINE('',#73,#807);
#805=LINE('',#69,#808);
#806=LINE('',#71,#809);
#807=VECTOR('',#810,1.0);
#808=VECTOR('',#811,1.0);
#809=VECTOR('',#812,1.0);
#810=DIRECTION('',(-0.15594706488981258,0.07379248080715713,-0.9850051688841932));
#811=DIRECTION('',(0.24374459648235292,-0.07245330119473069,0.967129304091051));
#812=DIRECTION('',(-0.7367146182368025,-0.05051675540735349,0.6743141913821152));
ENDSEC;
END-ISO-10303-21;
